# xmcd CD database file
# Copyright (C) 1997 Ti Kan
#
# Track frame offsets:
#  150
#  23132
#  46382
#  68147
#  87857
#  91845
#  114947
#  139737
#  158455
#  182745
#  202695
#  226412
#  251337
#  265747
#
# Disc length: 4045 seconds
#
# Revision: 1
# Processed by: cddbd v1.4b41PL1 Copyright (c) Steve Scherf et al.
# Submitted via: CDWizzard Release:4.32
#
DISCID=a40fcb0e
DTITLE=Earth , Win and Fire - Elements Of Love: The Ballads
DYEAR=1900
DGENRE=
TTITLE0=Open Our Eyes
TTITLE1=Keep Your Head To The Sky
TTITLE2=Devotion
TTITLE3=Loves Holiday
TTITLE4=Ponta de Areia
TTITLE5=Be Ever Wonderful
TTITLE6=All About Love
TTITLE7=Can't Hide Love
TTITLE8=I'll Write A Song For You
TTITLE9=After The Love Is Gone
TTITLE10=Imagination
TTITLE11=Side By Side
TTITLE12=Spirit
TTITLE13=Reasons
EXTD=
EXTT0=
EXTT1=
EXTT2=
EXTT3=
EXTT4=
EXTT5=
EXTT6=
EXTT7=
EXTT8=
EXTT9=
EXTT10=
EXTT11=
EXTT12=
EXTT13=
PLAYORDER=
